<svg width="26" height="26" viewBox="0 0 26 26" fill="none" xmlns="http://www.w3.org/2000/svg">
<g clip-path="url(#clip0_137_12)">
<path d="M13 16.4667C14.9146 16.4667 16.4667 14.9146 16.4667 13C16.4667 11.0854 14.9146 9.53333 13 9.53333C11.0854 9.53333 9.53333 11.0854 9.53333 13C9.53333 14.9146 11.0854 16.4667 13 16.4667Z" fill="white"/>
<path d="M9.74999 2.16663L7.76749 4.33329H4.33332C3.14166 4.33329 2.16666 5.30829 2.16666 6.49996V19.5C2.16666 20.6916 3.14166 21.6666 4.33332 21.6666H21.6667C22.8583 21.6666 23.8333 20.6916 23.8333 19.5V6.49996C23.8333 5.30829 22.8583 4.33329 21.6667 4.33329H18.2325L16.25 2.16663H9.74999ZM13 18.4166C10.01 18.4166 7.58332 15.99 7.58332 13C7.58332 10.01 10.01 7.58329 13 7.58329C15.99 7.58329 18.4167 10.01 18.4167 13C18.4167 15.99 15.99 18.4166 13 18.4166Z" fill="white"/>
</g>
<defs>
<clipPath id="clip0_137_12">
<rect width="26" height="26" fill="white"/>
</clipPath>
</defs>
</svg>
