<svg width="32" height="18" viewBox="0 0 32 18" fill="none" xmlns="http://www.w3.org/2000/svg">
<path d="M30.5161 6.17647C30.6445 6.17647 30.7675 6.12689 30.8583 6.03864C30.949 5.95039 31 5.83069 31 5.70588V3.22118C30.9987 2.63247 30.7577 2.06822 30.3297 1.65194C29.9016 1.23566 29.3215 1.00124 28.7161 1H3.28387C2.67854 1.00124 2.09837 1.23566 1.67034 1.65194C1.24231 2.06822 1.00128 2.63247 1 3.22118V5.70588C1 5.83069 1.05098 5.95039 1.14172 6.03864C1.23247 6.12689 1.35554 6.17647 1.48387 6.17647C2.25385 6.17647 2.9923 6.47395 3.53676 7.00346C4.08122 7.53298 4.3871 8.25115 4.3871 9C4.3871 9.74885 4.08122 10.467 3.53676 10.9965C2.9923 11.5261 2.25385 11.8235 1.48387 11.8235C1.35554 11.8235 1.23247 11.8731 1.14172 11.9614C1.05098 12.0496 1 12.1693 1 12.2941V14.7788C1.00128 15.3675 1.24231 15.9318 1.67034 16.3481C2.09837 16.7643 2.67854 16.9988 3.28387 17H28.7161C29.3215 16.9988 29.9016 16.7643 30.3297 16.3481C30.7577 15.9318 30.9987 15.3675 31 14.7788V12.2941C31 12.1693 30.949 12.0496 30.8583 11.9614C30.7675 11.8731 30.6445 11.8235 30.5161 11.8235C29.7461 11.8235 29.0077 11.5261 28.4632 10.9965C27.9188 10.467 27.6129 9.74885 27.6129 9C27.6129 8.25115 27.9188 7.53298 28.4632 7.00346C29.0077 6.47395 29.7461 6.17647 30.5161 6.17647ZM26.6452 9C26.6448 9.91718 26.9888 10.8029 27.6125 11.4909C28.2361 12.1789 29.0966 12.6218 30.0323 12.7365V14.7788C30.0323 15.1183 29.8936 15.4439 29.6468 15.6839C29.3999 15.924 29.0652 16.0588 28.7161 16.0588H11.6452V13.2353C11.6452 13.1105 11.5942 12.9908 11.5034 12.9025C11.4127 12.8143 11.2896 12.7647 11.1613 12.7647C11.033 12.7647 10.9099 12.8143 10.8191 12.9025C10.7284 12.9908 10.6774 13.1105 10.6774 13.2353V16.0588H3.28387C2.93481 16.0588 2.60005 15.924 2.35323 15.6839C2.10641 15.4439 1.96774 15.1183 1.96774 14.7788V12.7365C2.90535 12.6242 3.76837 12.1823 4.3942 11.494C5.02004 10.8058 5.3655 9.91876 5.3655 9C5.3655 8.08124 5.02004 7.19419 4.3942 6.50596C3.76837 5.81774 2.90535 5.37584 1.96774 5.26353V3.22118C1.96774 2.8817 2.10641 2.55613 2.35323 2.31608C2.60005 2.07603 2.93481 1.94118 3.28387 1.94118H10.6774V4.76471C10.6774 4.88951 10.7284 5.00921 10.8191 5.09746C10.9099 5.18572 11.033 5.23529 11.1613 5.23529C11.2896 5.23529 11.4127 5.18572 11.5034 5.09746C11.5942 5.00921 11.6452 4.88951 11.6452 4.76471V1.94118H28.7161C29.0652 1.94118 29.3999 2.07603 29.6468 2.31608C29.8936 2.55613 30.0323 2.8817 30.0323 3.22118V5.26353C29.0966 5.37818 28.2361 5.82108 27.6125 6.50907C26.9888 7.19707 26.6448 8.08282 26.6452 9ZM11.6452 7.58824V10.4118C11.6452 10.5366 11.5942 10.6563 11.5034 10.7445C11.4127 10.8328 11.2896 10.8824 11.1613 10.8824C11.033 10.8824 10.9099 10.8328 10.8191 10.7445C10.7284 10.6563 10.6774 10.5366 10.6774 10.4118V7.58824C10.6774 7.46343 10.7284 7.34373 10.8191 7.25548C10.9099 7.16723 11.033 7.11765 11.1613 7.11765C11.2896 7.11765 11.4127 7.16723 11.5034 7.25548C11.5942 7.34373 11.6452 7.46343 11.6452 7.58824ZM18.4194 8.05882C18.8022 8.05882 19.1764 7.94843 19.4947 7.74159C19.8129 7.53475 20.061 7.24077 20.2075 6.89682C20.354 6.55286 20.3923 6.17438 20.3176 5.80924C20.243 5.4441 20.0586 5.1087 19.7879 4.84545C19.5173 4.58219 19.1724 4.40292 18.7969 4.33029C18.4215 4.25766 18.0323 4.29493 17.6787 4.4374C17.325 4.57987 17.0227 4.82114 16.8101 5.13069C16.5974 5.44024 16.4839 5.80418 16.4839 6.17647C16.4839 6.6757 16.6878 7.15449 17.0508 7.50749C17.4137 7.8605 17.906 8.05882 18.4194 8.05882ZM18.4194 5.23529C18.6108 5.23529 18.7979 5.29049 18.957 5.39391C19.1161 5.49733 19.2402 5.64432 19.3134 5.8163C19.3867 5.98828 19.4058 6.17752 19.3685 6.36009C19.3312 6.54266 19.239 6.71036 19.1037 6.84198C18.9683 6.97361 18.7959 7.06325 18.6082 7.09956C18.4204 7.13588 18.2258 7.11724 18.049 7.046C17.8722 6.97477 17.721 6.85414 17.6147 6.69936C17.5084 6.54459 17.4516 6.36262 17.4516 6.17647C17.4516 5.92686 17.5536 5.68746 17.7351 5.51096C17.9165 5.33445 18.1627 5.23529 18.4194 5.23529ZM25.0726 5.07529L17.3306 13.5459C17.2459 13.6394 17.1264 13.6964 16.9985 13.7043C16.8706 13.7122 16.7447 13.6705 16.6484 13.5882C16.5522 13.5058 16.4937 13.3896 16.4855 13.2652C16.4773 13.1408 16.5203 13.0184 16.6048 12.9247L24.3468 4.45412C24.3877 4.40464 24.4386 4.36375 24.4963 4.3339C24.5539 4.30405 24.6172 4.28587 24.6823 4.28044C24.7473 4.27501 24.8129 4.28246 24.8749 4.30232C24.937 4.32219 24.9942 4.35406 25.0433 4.39603C25.0923 4.438 25.1321 4.48918 25.1602 4.54651C25.1884 4.60383 25.2043 4.66611 25.2071 4.72958C25.2098 4.79305 25.1993 4.8564 25.1762 4.91581C25.1531 4.97523 25.1178 5.02948 25.0726 5.07529ZM23.2581 9.94118C22.8753 9.94118 22.5011 10.0516 22.1828 10.2584C21.8645 10.4652 21.6164 10.7592 21.4699 11.1032C21.3234 11.4471 21.2851 11.8256 21.3598 12.1908C21.4345 12.5559 21.6188 12.8913 21.8895 13.1546C22.1602 13.4178 22.505 13.5971 22.8805 13.6697C23.2559 13.7423 23.6451 13.7051 23.9987 13.5626C24.3524 13.4201 24.6547 13.1789 24.8674 12.8693C25.08 12.5598 25.1935 12.1958 25.1935 11.8235C25.1935 11.3243 24.9896 10.8455 24.6267 10.4925C24.2637 10.1395 23.7714 9.94118 23.2581 9.94118ZM23.2581 12.7647C23.0667 12.7647 22.8796 12.7095 22.7204 12.6061C22.5613 12.5027 22.4372 12.3557 22.364 12.1837C22.2907 12.0117 22.2716 11.8225 22.3089 11.6399C22.3463 11.4573 22.4384 11.2896 22.5738 11.158C22.7091 11.0264 22.8815 10.9368 23.0693 10.9004C23.257 10.8641 23.4516 10.8828 23.6284 10.954C23.8052 11.0252 23.9564 11.1459 24.0627 11.3006C24.169 11.4554 24.2258 11.6374 24.2258 11.8235C24.2258 12.0731 24.1238 12.3125 23.9424 12.489C23.7609 12.6655 23.5147 12.7647 23.2581 12.7647Z" fill="#28C76F" stroke="#28C76F"/>
</svg>
