<svg width="11" height="9" viewBox="0 0 11 9" fill="none" xmlns="http://www.w3.org/2000/svg">
<path fill-rule="evenodd" clip-rule="evenodd" d="M7.36172 0C6.50831 0 5.68924 0.397275 5.15463 1.02507C4.62003 0.397275 3.80095 0 2.94755 0C1.43692 0 0.25 1.18692 0.25 2.69755C0.25 4.5515 1.91758 6.06213 4.44346 8.35749L5.15463 9L5.8658 8.35259C8.39169 6.06213 10.0593 4.5515 10.0593 2.69755C10.0593 1.18692 8.87234 0 7.36172 0ZM5.20369 7.6267L5.15465 7.67574L5.1056 7.6267C2.771 5.5128 1.23094 4.11498 1.23094 2.69754C1.23094 1.71661 1.96664 0.980919 2.94756 0.980919C3.70288 0.980919 4.43857 1.46648 4.69852 2.13841H5.61568C5.87072 1.46648 6.60642 0.980919 7.36173 0.980919C8.34266 0.980919 9.07835 1.71661 9.07835 2.69754C9.07835 4.11498 7.5383 5.5128 5.20369 7.6267Z" fill="#9B9B9B"/>
</svg>
