<svg width="34" height="34" viewBox="0 0 34 34" fill="none" xmlns="http://www.w3.org/2000/svg">
<path fill-rule="evenodd" clip-rule="evenodd" d="M17.8151 10.3055C17.8151 8.66092 19.1483 7.32772 20.7929 7.32772C22.4375 7.32772 23.7707 8.66092 23.7707 10.3055C23.7707 11.9501 22.4375 13.2833 20.7929 13.2833C19.1483 13.2833 17.8151 11.9501 17.8151 10.3055ZM16.2609 10.9556L4.62397 10.9555C4.18214 10.9555 3.82397 10.5973 3.82397 10.1555C3.82398 9.71366 4.18215 9.35549 4.62398 9.35549L16.3138 9.35558C16.7511 7.28321 18.5904 5.72772 20.7929 5.72772C22.9951 5.72772 24.8341 7.28269 25.2718 9.35455L29.4061 9.35417C29.848 9.35413 30.2062 9.71227 30.2062 10.1541C30.2063 10.5959 29.8481 10.9541 29.4063 10.9542L25.325 10.9545C25.0098 13.1754 23.1008 14.8833 20.7929 14.8833C18.4854 14.8833 16.5766 13.1759 16.2609 10.9556Z" fill="#6A6A6A"/>
<path fill-rule="evenodd" clip-rule="evenodd" d="M16.2152 23.6032C16.2152 21.9586 14.882 20.6255 13.2375 20.6255C11.5929 20.6255 10.2597 21.9586 10.2597 23.6032C10.2597 25.2478 11.5929 26.581 13.2375 26.581C14.882 26.581 16.2152 25.2478 16.2152 23.6032ZM17.7694 24.2533L29.4064 24.2532C29.8482 24.2532 30.2064 23.895 30.2064 23.4532C30.2064 23.0114 29.8482 22.6532 29.4064 22.6532L17.7166 22.6533C17.2792 20.5809 15.44 19.0255 13.2375 19.0255C11.0353 19.0255 9.19632 20.5804 8.7586 22.6523L4.6242 22.6519C4.18237 22.6519 3.82416 23.01 3.82412 23.4518C3.82408 23.8937 4.18222 24.2519 4.62405 24.2519L8.70535 24.2523C9.02056 26.4731 10.9296 28.181 13.2375 28.181C15.545 28.181 17.4538 26.4737 17.7694 24.2533Z" fill="#6A6A6A"/>
</svg>
