<svg width="15" height="15" viewBox="0 0 15 15" fill="none" xmlns="http://www.w3.org/2000/svg">
<path d="M13.9228 8.14591L12.7005 7.42857L13.9228 6.71123C14.2029 6.54767 14.4352 6.31349 14.5967 6.03203C14.7582 5.75057 14.8432 5.43166 14.8432 5.10708C14.8432 4.78251 14.7582 4.4636 14.5967 4.18214C14.4352 3.90068 14.2029 3.6665 13.9228 3.50294L8.35631 0.252857C8.0726 0.0872568 7.75005 0 7.42161 0C7.09318 0 6.77063 0.0872568 6.48691 0.252857L0.920467 3.50294C0.640371 3.6665 0.407991 3.90068 0.246489 4.18214C0.0849861 4.4636 0 4.78251 0 5.10708C0 5.43166 0.0849861 5.75057 0.246489 6.03203C0.407991 6.31349 0.640371 6.54767 0.920467 6.71123L2.15668 7.42857L0.934383 8.14591C0.654287 8.30947 0.421907 8.54365 0.260405 8.82511C0.0989021 9.10657 0.013916 9.42548 0.013916 9.75006C0.013916 10.0746 0.0989021 10.3935 0.260405 10.675C0.421907 10.9565 0.654287 11.1906 0.934383 11.3542L6.50083 14.6043C6.78455 14.7699 7.1071 14.8571 7.43553 14.8571C7.76396 14.8571 8.08651 14.7699 8.37023 14.6043L13.9367 11.3542C14.2168 11.1906 14.4492 10.9565 14.6107 10.675C14.7722 10.3935 14.8571 10.0746 14.8571 9.75006C14.8571 9.42548 14.7722 9.10657 14.6107 8.82511C14.4492 8.54365 14.2168 8.30947 13.9367 8.14591H13.9228ZM7.42857 1.857L12.995 5.10708L7.42857 8.35717L1.86212 5.10708L7.42857 1.857ZM7.42857 13.0001L1.86212 9.75006L3.99593 8.50342L6.50083 9.96131C6.78455 10.1269 7.1071 10.2142 7.43553 10.2142C7.76396 10.2142 8.08651 10.1269 8.37023 9.96131L10.8612 8.50342L12.995 9.75006L7.42857 13.0001Z" fill="#FF9209"/>
</svg>
