<svg width="20" height="20" viewBox="0 0 20 20" fill="none" xmlns="http://www.w3.org/2000/svg">
<path d="M5.86427 15.7251C5.9127 16.4071 5.84393 17.0928 5.66132 17.7487C5.59259 17.9935 5.59288 18.2542 5.66214 18.4988C5.73141 18.7433 5.86661 18.961 6.05102 19.1247C6.23543 19.2885 6.46097 19.3912 6.69973 19.4201C6.9385 19.4491 7.18001 19.403 7.3944 19.2877C8.56423 18.66 10.1103 17.5766 11.0726 15.9117H11.8115C12.8054 15.9301 13.7929 15.738 14.7163 15.3465C15.6396 14.955 16.4804 14.3719 17.1894 13.6314C17.8985 12.8908 18.4617 12.0076 18.8461 11.0333C19.2306 10.0589 19.4286 9.01299 19.4286 7.95645C19.4286 6.89991 19.2306 5.85395 18.8461 4.8796C18.4617 3.90526 17.8985 3.02205 17.1894 2.28151C16.4804 1.54097 15.6396 0.957933 14.7163 0.566424C13.7929 0.174914 12.8054 -0.017227 11.8115 0.00121185H7.47877C5.63519 0.00322546 3.85712 0.728126 2.48526 2.03702C1.11339 3.34592 0.244191 5.14677 0.0441982 7.09454C-0.155795 9.0423 0.327481 11 1.40143 12.5926C2.47538 14.1851 4.06448 15.3005 5.86427 15.7251ZM7.48105 1.45533H11.8138C12.627 1.43864 13.4352 1.59446 14.1911 1.91368C14.947 2.2329 15.6355 2.7091 16.2161 3.31444C16.7968 3.91978 17.2581 4.6421 17.573 5.43915C17.8879 6.2362 18.0501 7.09199 18.0501 7.95645C18.0501 8.82091 17.8879 9.67669 17.573 10.4737C17.2581 11.2708 16.7968 11.9931 16.2161 12.5985C15.6355 13.2038 14.947 13.68 14.1911 13.9992C13.4352 14.3184 12.627 14.4743 11.8138 14.4576H10.6736C10.5488 14.4573 10.4263 14.4932 10.3194 14.5616C10.2125 14.6299 10.1252 14.7281 10.067 14.8453C9.36691 16.2631 8.09447 17.2349 7.0569 17.8335C7.26753 16.905 7.30395 15.9415 7.16408 14.998C7.14218 14.844 7.07429 14.7014 6.97042 14.5915C6.86655 14.4815 6.73219 14.4099 6.58715 14.3873C5.05971 14.1467 3.67437 13.3011 2.70902 12.0203C1.74368 10.7394 1.26974 9.11804 1.38228 7.48134C1.49482 5.84463 2.18551 4.31368 3.31579 3.19559C4.44608 2.07751 5.93236 1.45498 7.47649 1.45291L7.48105 1.45533Z" fill="black"/>
<path d="M5.86427 15.7251C5.9127 16.4071 5.84393 17.0928 5.66132 17.7487C5.59259 17.9935 5.59288 18.2542 5.66214 18.4988C5.73141 18.7433 5.86661 18.961 6.05102 19.1247C6.23543 19.2885 6.46097 19.3912 6.69973 19.4201C6.9385 19.4491 7.18001 19.403 7.3944 19.2877C8.56423 18.66 10.1103 17.5766 11.0726 15.9117H11.8115C12.8054 15.9301 13.7929 15.738 14.7163 15.3465C15.6396 14.955 16.4804 14.3719 17.1894 13.6314C17.8985 12.8908 18.4617 12.0076 18.8461 11.0333C19.2306 10.0589 19.4286 9.01299 19.4286 7.95645C19.4286 6.89991 19.2306 5.85395 18.8461 4.8796C18.4617 3.90526 17.8985 3.02205 17.1894 2.28151C16.4804 1.54097 15.6396 0.957933 14.7163 0.566424C13.7929 0.174914 12.8054 -0.017227 11.8115 0.00121185H7.47877C5.63519 0.00322546 3.85712 0.728126 2.48526 2.03702C1.11339 3.34592 0.244191 5.14677 0.0441982 7.09454C-0.155795 9.0423 0.327481 11 1.40143 12.5926C2.47538 14.1851 4.06448 15.3005 5.86427 15.7251ZM7.48105 1.45533H11.8138C12.627 1.43864 13.4352 1.59446 14.1911 1.91368C14.947 2.2329 15.6355 2.7091 16.2161 3.31444C16.7968 3.91978 17.2581 4.6421 17.573 5.43915C17.8879 6.2362 18.0501 7.09199 18.0501 7.95645C18.0501 8.82091 17.8879 9.67669 17.573 10.4737C17.2581 11.2708 16.7968 11.9931 16.2161 12.5985C15.6355 13.2038 14.947 13.68 14.1911 13.9992C13.4352 14.3184 12.627 14.4743 11.8138 14.4576H10.6736C10.5488 14.4573 10.4263 14.4932 10.3194 14.5616C10.2125 14.6299 10.1252 14.7281 10.067 14.8453C9.36691 16.2631 8.09447 17.2349 7.0569 17.8335C7.26753 16.905 7.30395 15.9415 7.16408 14.998C7.14218 14.844 7.07429 14.7014 6.97042 14.5915C6.86655 14.4815 6.73219 14.4099 6.58715 14.3873C5.05971 14.1467 3.67437 13.3011 2.70902 12.0203C1.74368 10.7394 1.26974 9.11804 1.38228 7.48134C1.49482 5.84463 2.18551 4.31368 3.31579 3.19559C4.44608 2.07751 5.93236 1.45498 7.47649 1.45291L7.48105 1.45533Z" stroke="#9DB2CE"/>
</svg>
