<svg width="16" height="17" viewBox="0 0 16 17" fill="none" xmlns="http://www.w3.org/2000/svg">
<path d="M13.6057 7.038V6.03584C13.6057 5.22351 13.4463 4.43478 13.132 3.69165C12.8286 2.97445 12.3946 2.33064 11.842 1.77802C11.2894 1.22543 10.6456 0.791439 9.9284 0.488118C9.18524 0.173797 8.39654 0.014389 7.58419 0.014389C6.77183 0.014389 5.98313 0.173797 5.23997 0.488118C4.52277 0.791468 3.87895 1.22543 3.32634 1.77802C2.77375 2.33061 2.33973 2.97445 2.03641 3.69165C1.72209 4.43481 1.56268 5.22351 1.56268 6.03584V7.038C0.695118 7.12449 0.0153809 7.85863 0.0153809 8.74858V15.2656C0.0153809 16.2136 0.786606 16.9848 1.73454 16.9848H13.4338C14.3818 16.9848 15.153 16.2136 15.153 15.2656V8.74858C15.153 7.85863 14.4733 7.12452 13.6057 7.038ZM1.28216 15.2656V8.74858C1.28216 8.5596 1.3981 8.39774 1.56274 8.33005C1.61573 8.30829 1.67371 8.29617 1.73459 8.29617H2.19614H2.82951H12.339H12.9724H13.4339C13.4947 8.29617 13.5528 8.30826 13.6058 8.33005C13.7704 8.39774 13.8863 8.5596 13.8863 8.74858V15.2656C13.8863 15.5155 13.6838 15.7181 13.4339 15.7181H1.73457C1.48471 15.7181 1.28216 15.5155 1.28216 15.2656ZM2.82948 6.03584C2.82948 3.40988 4.95826 1.28113 7.58422 1.28113C10.2102 1.28113 12.3389 3.40991 12.3389 6.03584V7.02942H2.82948V6.03584Z" fill="#2B3499"/>
<path d="M13.4332 17H1.73394C0.777848 17 0 16.2222 0 15.266V8.74897C0 8.31682 0.16059 7.90252 0.452173 7.58244C0.738758 7.26782 1.12724 7.07024 1.5473 7.02509V6.03626C1.5473 5.22196 1.70706 4.43133 2.02221 3.68631C2.32627 2.96736 2.76135 2.32195 3.3153 1.768C3.86922 1.21408 4.51466 0.779031 5.23361 0.474941C5.97866 0.159763 6.76928 0 7.58359 0C8.3979 0 9.18855 0.159763 9.93357 0.474911C10.6525 0.778972 11.298 1.21402 11.8519 1.76797C12.4058 2.32192 12.8409 2.96733 13.145 3.68628C13.4601 4.43124 13.6199 5.2219 13.6199 6.03623V7.02506C14.04 7.07021 14.4285 7.26782 14.715 7.58244C15.0066 7.90252 15.1672 8.31679 15.1672 8.74897V15.266C15.1672 16.2222 14.3893 17 13.4332 17ZM7.58359 0.0295692C6.77327 0.0295692 5.9865 0.188563 5.24514 0.502115C4.52968 0.804727 3.88744 1.23765 3.33621 1.78885C2.78495 2.34011 2.35203 2.98235 2.04944 3.69778C1.73589 4.43914 1.5769 5.22589 1.5769 6.0362V7.05176L1.56356 7.05309C1.14569 7.09475 0.758746 7.28979 0.474054 7.60234C0.187439 7.91695 0.0295988 8.32418 0.0295988 8.74894V15.266C0.0295988 16.2058 0.79417 16.9704 1.73397 16.9704H13.4332C14.373 16.9704 15.1376 16.2058 15.1376 15.266V8.74894C15.1376 8.32415 14.9798 7.91695 14.6932 7.60234C14.4085 7.28982 14.0216 7.09475 13.6036 7.05309L13.5903 7.05176V6.0362C13.5903 5.22583 13.4313 4.43905 13.1178 3.69778C12.8152 2.98235 12.3823 2.34008 11.831 1.78885C11.2798 1.23762 10.6375 0.804697 9.9221 0.502115C9.18071 0.188563 8.39393 0.0295692 7.58359 0.0295692ZM13.4333 15.7333H1.73397C1.47636 15.7333 1.26678 15.5237 1.26678 15.266V8.74897C1.26678 8.55878 1.3805 8.38915 1.55652 8.31679C1.613 8.29358 1.67273 8.28181 1.73397 8.28181H13.4333C13.4945 8.28181 13.5542 8.29358 13.6107 8.31679C13.7867 8.38915 13.9005 8.55881 13.9005 8.74897V15.266C13.9005 15.5237 13.6909 15.7333 13.4333 15.7333ZM1.73397 8.31138C1.67658 8.31138 1.62066 8.32241 1.56773 8.34414C1.40285 8.41191 1.29631 8.57085 1.29631 8.74897V15.266C1.29631 15.5073 1.49263 15.7037 1.73394 15.7037H13.4332C13.6745 15.7037 13.8709 15.5073 13.8709 15.266V8.74897C13.8709 8.57085 13.7643 8.41191 13.5994 8.34414C13.5465 8.32241 13.4906 8.31138 13.4332 8.31138H1.73397ZM12.3531 7.0446H2.8141V6.03623C2.8141 3.40632 4.9537 1.26675 7.58362 1.26675C10.2135 1.26675 12.3531 3.40632 12.3531 6.03623V7.0446ZM2.84367 7.01503H12.3236V6.03623C12.3236 3.42264 10.1972 1.29631 7.58362 1.29631C4.97 1.29631 2.84367 3.42264 2.84367 6.03623V7.01503Z" fill="#2B3499"/>
<path d="M7.58303 8.94206C6.56772 8.94206 5.7417 9.76811 5.7417 10.7834C5.7417 11.5711 6.23894 12.2448 6.93594 12.5073V13.7072V13.9582C6.93594 14.1114 6.99029 14.2518 7.08077 14.3614C7.19692 14.502 7.37265 14.5916 7.56928 14.5916C7.76471 14.5916 7.93943 14.503 8.05561 14.3639C8.14739 14.254 8.20266 14.1126 8.20266 13.9582V13.7111V12.5174C8.91406 12.2624 9.42437 11.5815 9.42437 10.7834C9.4244 9.76811 8.59838 8.94206 7.58303 8.94206ZM7.58303 11.3581C7.2657 11.3581 7.00842 11.1008 7.00842 10.7834C7.00842 10.4661 7.2657 10.2088 7.58303 10.2088C7.90037 10.2088 8.15765 10.4661 8.15765 10.7834C8.15765 11.1008 7.9004 11.3581 7.58303 11.3581Z" fill="#2B3499"/>
<path d="M7.56872 14.6068C7.37468 14.6068 7.19248 14.521 7.06879 14.3712C6.97319 14.2555 6.92056 14.1089 6.92056 13.9586V12.5179C6.20584 12.2442 5.72632 11.5486 5.72632 10.7838C5.72632 9.76034 6.55899 8.92767 7.58244 8.92767C8.60589 8.92767 9.43859 9.76034 9.43859 10.7838C9.43859 11.5618 8.94803 12.2615 8.21688 12.5281V13.9586C8.21688 14.1101 8.16341 14.2576 8.0664 14.3738C7.94274 14.5219 7.76133 14.6068 7.56872 14.6068ZM7.58244 8.95724C6.57525 8.95724 5.75589 9.77667 5.75589 10.7838C5.75589 11.5398 6.23198 12.227 6.94055 12.4938L6.95013 12.4974V13.9586C6.95013 14.1021 7.00037 14.2419 7.09159 14.3523C7.20963 14.4952 7.38356 14.5772 7.56872 14.5772C7.75252 14.5772 7.92565 14.4962 8.04369 14.3548C8.1363 14.2439 8.18728 14.1032 8.18728 13.9586V12.5074L8.19706 12.5039C8.92198 12.2441 9.40899 11.5528 9.40899 10.7838C9.40902 9.77667 8.58963 8.95724 7.58244 8.95724ZM7.58244 11.3733C7.25744 11.3733 6.99304 11.1088 6.99304 10.7838C6.99304 10.4588 7.25744 10.1944 7.58244 10.1944C7.90743 10.1944 8.17184 10.4588 8.17184 10.7838C8.17184 11.1088 7.90743 11.3733 7.58244 11.3733ZM7.58244 10.224C7.27376 10.224 7.0226 10.4751 7.0226 10.7839C7.0226 11.0926 7.27374 11.3437 7.58244 11.3437C7.89114 11.3437 8.14227 11.0926 8.14227 10.7839C8.14227 10.4751 7.89114 10.224 7.58244 10.224Z" fill="#2B3499"/>
</svg>
