<svg width="29" height="25" viewBox="0 0 29 25" fill="none" xmlns="http://www.w3.org/2000/svg">
<path d="M23.5 1.5H5.5C4.43913 1.5 3.42172 1.92143 2.67157 2.67157C1.92143 3.42172 1.5 4.43913 1.5 5.5V15.5C1.5 16.5609 1.92143 17.5783 2.67157 18.3284C3.42172 19.0786 4.43913 19.5 5.5 19.5H16.5L22.5 23.5V19.5H23.5C24.5609 19.5 25.5783 19.0786 26.3284 18.3284C27.0786 17.5783 27.5 16.5609 27.5 15.5V5.5C27.5 4.43913 27.0786 3.42172 26.3284 2.67157C25.5783 1.92143 24.5609 1.5 23.5 1.5Z" stroke="#FF6C22" stroke-width="2" stroke-linecap="round" stroke-linejoin="round"/>
<path d="M8.5 11.5C8.5 11.7652 8.39464 12.0196 8.20711 12.2071C8.01957 12.3946 7.76522 12.5 7.5 12.5C7.23478 12.5 6.98043 12.3946 6.79289 12.2071C6.60536 12.0196 6.5 11.7652 6.5 11.5C6.5 11.2348 6.60536 10.9804 6.79289 10.7929C6.98043 10.6054 7.23478 10.5 7.5 10.5C7.76522 10.5 8.01957 10.6054 8.20711 10.7929C8.39464 10.9804 8.5 11.2348 8.5 11.5ZM14.5 11.5C14.5 11.7652 14.3946 12.0196 14.2071 12.2071C14.0196 12.3946 13.7652 12.5 13.5 12.5C13.2348 12.5 12.9804 12.3946 12.7929 12.2071C12.6054 12.0196 12.5 11.7652 12.5 11.5C12.5 11.2348 12.6054 10.9804 12.7929 10.7929C12.9804 10.6054 13.2348 10.5 13.5 10.5C13.7652 10.5 14.0196 10.6054 14.2071 10.7929C14.3946 10.9804 14.5 11.2348 14.5 11.5ZM20.5 11.5C20.5 11.7652 20.3946 12.0196 20.2071 12.2071C20.0196 12.3946 19.7652 12.5 19.5 12.5C19.2348 12.5 18.9804 12.3946 18.7929 12.2071C18.6054 12.0196 18.5 11.7652 18.5 11.5C18.5 11.2348 18.6054 10.9804 18.7929 10.7929C18.9804 10.6054 19.2348 10.5 19.5 10.5C19.7652 10.5 20.0196 10.6054 20.2071 10.7929C20.3946 10.9804 20.5 11.2348 20.5 11.5Z" stroke="#FF6C22" stroke-width="2" stroke-linecap="round" stroke-linejoin="round"/>
</svg>
