<svg width="23" height="23" viewBox="0 0 23 23" fill="none" xmlns="http://www.w3.org/2000/svg">
<path d="M7.95791 18.6626H9.59506C9.59506 19.7928 10.5113 20.709 11.6415 20.709C12.7717 20.709 13.688 19.7928 13.688 18.6626H15.3251C15.3251 20.697 13.6759 22.3462 11.6415 22.3462C9.60711 22.3462 7.95791 20.697 7.95791 18.6626ZM22.283 16.6154V17.0262C22.283 17.9329 21.5501 18.6626 20.6453 18.6626H2.63772C1.73317 18.6626 1 17.9303 1 17.0262V16.6154C1 15.1736 2.06744 13.9806 3.45573 13.7806V8.83934C3.45573 4.31745 7.12007 0.65387 11.6415 0.65387C16.163 0.65387 19.8273 4.31833 19.8273 8.83934V13.7805C21.2175 13.98 22.283 15.1721 22.283 16.6154ZM20.6459 16.6154C20.6459 15.9367 20.0969 15.3883 19.4142 15.3883C18.7379 15.3883 18.1901 14.8364 18.1901 14.1634V8.83934C18.1901 5.22249 15.2588 2.29102 11.6415 2.29102C8.02417 2.29102 5.09289 5.2217 5.09289 8.83934V14.1634C5.09289 14.8394 4.54229 15.3883 3.8688 15.3883C3.18839 15.3883 2.63716 15.9384 2.63716 16.6154V17.0256L20.6453 17.0254L20.6459 16.6154Z" fill="#212121" stroke="#212121" stroke-width="0.4"/>
</svg>
