<svg width="13" height="11" viewBox="0 0 13 11" fill="none" xmlns="http://www.w3.org/2000/svg">
<path d="M11.75 8.77778C11.75 9.03563 11.6494 9.28292 11.4704 9.46524C11.2914 9.64757 11.0486 9.75 10.7955 9.75H2.20455C1.95138 9.75 1.70859 9.64757 1.52958 9.46524C1.35057 9.28292 1.25 9.03563 1.25 8.77778V3.43056C1.25 3.17271 1.35057 2.92542 1.52958 2.74309C1.70859 2.56076 1.95138 2.45833 2.20455 2.45833H4.11364L5.06818 1H7.93182L8.88636 2.45833H10.7955C11.0486 2.45833 11.2914 2.56076 11.4704 2.74309C11.6494 2.92542 11.75 3.17271 11.75 3.43056V8.77778Z" stroke="#F8F8F8" stroke-width="0.75" stroke-linecap="round" stroke-linejoin="round"/>
<path d="M6.5 7.41602C7.4665 7.41602 8.25 6.63251 8.25 5.66602C8.25 4.69952 7.4665 3.91602 6.5 3.91602C5.5335 3.91602 4.75 4.69952 4.75 5.66602C4.75 6.63251 5.5335 7.41602 6.5 7.41602Z" stroke="#F8F8F8" stroke-width="0.75" stroke-linecap="round" stroke-linejoin="round"/>
</svg>
