<svg width="25" height="23" viewBox="0 0 25 23" fill="none" xmlns="http://www.w3.org/2000/svg">
<path d="M24.4409 2.38164C24.3698 2.28642 24.2774 2.20914 24.1711 2.15599C24.0648 2.10284 23.9475 2.07528 23.8287 2.07552H5.65411L5.27145 0.575513C5.22873 0.410735 5.13249 0.26481 4.99785 0.160646C4.86322 0.0564817 4.6978 -2.37168e-05 4.52757 7.46755e-09H0V1.53062H3.93369L7.15718 14.2041C7.19942 14.3692 7.29553 14.5154 7.43028 14.6197C7.56502 14.7239 7.7307 14.7802 7.90106 14.7797H23.8195V13.249H8.49494L8.01126 11.3694H21.5603C21.7259 11.3694 21.887 11.3157 22.0195 11.2164C22.152 11.117 22.2486 10.9774 22.295 10.8184L24.5634 3.05512C24.5974 2.94114 24.604 2.82075 24.5827 2.70373C24.5615 2.58671 24.5129 2.47636 24.4409 2.38164ZM20.9879 9.83882H7.62861L6.04288 3.60614H22.8093L20.9879 9.83882ZM14.1735 19.448C14.1735 18.8256 13.989 18.2172 13.6432 17.6997C13.2974 17.1822 12.8059 16.7788 12.2309 16.5406C11.6558 16.3025 11.0231 16.2401 10.4126 16.3616C9.80219 16.483 9.24146 16.7827 8.80135 17.2228C8.36124 17.6629 8.06152 18.2237 7.9401 18.8341C7.81867 19.4446 7.88099 20.0773 8.11918 20.6523C8.35736 21.2274 8.76071 21.7189 9.27823 22.0646C9.79574 22.4104 10.4042 22.595 11.0266 22.595C11.861 22.5942 12.6609 22.2624 13.2509 21.6724C13.8409 21.0824 14.1727 20.2824 14.1735 19.448ZM9.41025 19.448C9.41025 19.1284 9.50504 18.8159 9.68265 18.5501C9.86025 18.2843 10.1127 18.0771 10.408 17.9548C10.7034 17.8324 11.0284 17.8004 11.3419 17.8628C11.6555 17.9251 11.9435 18.0791 12.1695 18.3051C12.3956 18.5312 12.5495 18.8192 12.6119 19.1327C12.6742 19.4463 12.6422 19.7712 12.5199 20.0666C12.3975 20.3619 12.1904 20.6144 11.9246 20.792C11.6588 20.9696 11.3463 21.0644 11.0266 21.0644C10.5982 21.0636 10.1875 20.893 9.88455 20.5901C9.58161 20.2871 9.41106 19.8765 9.41025 19.448ZM23.8899 19.448C23.8899 18.8256 23.7053 18.2172 23.3595 17.6997C23.0138 17.1822 22.5223 16.7788 21.9472 16.5406C21.3722 16.3025 20.7395 16.2401 20.129 16.3616C19.5186 16.483 18.9578 16.7827 18.5177 17.2228C18.0776 17.6629 17.7779 18.2237 17.6565 18.8341C17.535 19.4446 17.5974 20.0773 17.8355 20.6523C18.0737 21.2274 18.4771 21.7189 18.9946 22.0646C19.5121 22.4104 20.1205 22.595 20.743 22.595C21.5773 22.5942 22.3773 22.2624 22.9673 21.6724C23.5573 21.0824 23.8891 20.2824 23.8899 19.448ZM19.1266 19.448C19.1266 19.1284 19.2214 18.8159 19.399 18.5501C19.5766 18.2843 19.8291 18.0771 20.1244 17.9548C20.4198 17.8324 20.7447 17.8004 21.0583 17.8628C21.3718 17.9251 21.6598 18.0791 21.8859 18.3051C22.1119 18.5312 22.2659 18.8192 22.3282 19.1327C22.3906 19.4463 22.3586 19.7712 22.2362 20.0666C22.1139 20.3619 21.9067 20.6144 21.6409 20.792C21.3751 20.9696 21.0626 21.0644 20.743 21.0644C20.3145 21.0636 19.9039 20.893 19.6009 20.5901C19.298 20.2871 19.1274 19.8765 19.1266 19.448Z" fill="#FF9209"/>
</svg>
