<svg width="21" height="21" viewBox="0 0 21 21" fill="none" xmlns="http://www.w3.org/2000/svg">
<path d="M5.13497 11.0866C5.43391 11.4743 5.73284 11.8643 6.03178 12.2521C6.50696 12.872 6.98437 13.492 7.45954 14.1119C7.56886 14.254 7.67817 14.396 7.78748 14.5403C7.86556 14.6417 8.05965 14.7116 8.18235 14.7048C8.33628 14.6981 8.46121 14.6417 8.57721 14.5403C8.8293 14.3148 9.08362 14.0894 9.33571 13.864C9.94251 13.3229 10.5493 12.7796 11.1561 12.2386C11.8878 11.5848 12.6173 10.9333 13.3491 10.2795C13.9804 9.71593 14.6117 9.15008 15.2453 8.58649C15.5532 8.31146 15.8722 8.04545 16.1711 7.75914C16.1756 7.75463 16.18 7.75238 16.1845 7.74787C16.4031 7.55174 16.3964 7.14821 16.1845 6.94983C15.9503 6.73341 15.629 6.74017 15.3948 6.94983C15.1427 7.17526 14.8884 7.4007 14.6363 7.62614C14.0295 8.16718 13.4227 8.71048 12.8159 9.25153C12.0842 9.90529 11.3547 10.5568 10.6229 11.2106C9.99159 11.7742 9.36025 12.34 8.72668 12.9036C8.41882 13.1786 8.0998 13.4446 7.80087 13.7309C7.7964 13.7355 7.79194 13.7377 7.78748 13.7422C8.05072 13.7422 8.31397 13.7422 8.57721 13.7422C8.27827 13.3545 7.97934 12.9645 7.6804 12.5767C7.20522 11.9568 6.72781 11.3368 6.25264 10.7169C6.14332 10.5748 6.03401 10.4328 5.9247 10.2885C5.84439 10.1826 5.65476 10.124 5.52983 10.124C5.39375 10.124 5.22866 10.1848 5.13497 10.2885C5.03681 10.3967 4.96542 10.5365 4.97211 10.6876C4.97881 10.8476 5.03904 10.9626 5.13497 11.0866Z" fill="#D500B3" stroke="#FF0000"/>
<path d="M19.1874 10.753C19.1874 10.9942 19.1784 11.2376 19.1584 11.4789C19.1494 11.5983 19.1383 11.7178 19.1249 11.8351C19.1227 11.8599 19.1182 11.8869 19.116 11.9117C19.1026 12.0289 19.1361 11.7674 19.1204 11.8847C19.1115 11.95 19.1004 12.0177 19.0914 12.083C19.0156 12.5497 18.9063 13.0096 18.7613 13.4604C18.6899 13.6791 18.6096 13.8955 18.5248 14.1097C18.5114 14.1435 18.4824 14.2044 18.5471 14.0579C18.5359 14.0849 18.5248 14.112 18.5114 14.1413C18.4869 14.1954 18.4646 14.2517 18.4378 14.3058C18.3887 14.414 18.3374 14.5223 18.2839 14.6282C18.0786 15.034 17.8466 15.424 17.5834 15.796C17.5209 15.8839 17.4562 15.9696 17.3915 16.0575C17.503 15.9019 17.396 16.0507 17.3714 16.0823C17.329 16.1364 17.2867 16.1905 17.242 16.2423C17.0993 16.4159 16.9476 16.585 16.7936 16.7473C16.6375 16.9096 16.4768 17.0674 16.3095 17.2162C16.2292 17.2884 16.1489 17.3582 16.0664 17.4281C16.0284 17.4597 15.9905 17.4912 15.9526 17.5206C15.9303 17.5386 15.908 17.5566 15.8834 17.5747C15.7674 17.6671 15.957 17.5183 15.8812 17.5769C15.522 17.8497 15.145 18.0999 14.7524 18.3209C14.5538 18.4313 14.3508 18.5328 14.1456 18.6297C14.0965 18.6522 14.0474 18.6748 13.9961 18.6973C13.9738 18.7063 13.9515 18.7176 13.9269 18.7266C14.0876 18.6545 13.9872 18.7018 13.9515 18.7154C13.8422 18.7605 13.7306 18.8033 13.6191 18.8461C13.1863 19.0062 12.7401 19.1302 12.2895 19.2226C12.1802 19.2451 12.0709 19.2654 11.9593 19.2835C11.8991 19.2925 11.8388 19.3015 11.7786 19.3105C11.6871 19.324 11.8299 19.3038 11.8366 19.3038C11.7965 19.3083 11.7563 19.315 11.7139 19.3195C11.4774 19.3466 11.241 19.3646 11.0023 19.3736C10.5249 19.3917 10.0452 19.3714 9.57005 19.315C9.53881 19.3105 9.50981 19.306 9.47858 19.3038C9.65928 19.3218 9.54551 19.3128 9.50535 19.3083C9.45404 19.3015 9.40496 19.2925 9.35365 19.2857C9.23318 19.2654 9.11272 19.2451 8.99448 19.2203C8.76693 19.173 8.54161 19.1189 8.32075 19.0558C8.0999 18.9926 7.88127 18.9205 7.66711 18.8416C7.56449 18.8033 7.4641 18.7627 7.36148 18.7221C7.32578 18.7063 7.22539 18.6613 7.38602 18.7334C7.35925 18.7221 7.33248 18.7109 7.30347 18.6973C7.24993 18.6725 7.19416 18.65 7.14062 18.6229C6.73014 18.4313 6.33527 18.2104 5.95825 17.9602C5.77086 17.8362 5.59016 17.7009 5.40946 17.5656C5.56562 17.6806 5.39607 17.5544 5.36038 17.5251C5.31799 17.4912 5.27784 17.4574 5.23545 17.4214C5.14622 17.3447 5.05698 17.2681 4.96998 17.1892C4.63311 16.8826 4.31856 16.5512 4.03078 16.1995C3.99954 16.1612 3.96831 16.1228 3.93931 16.0845C3.92146 16.062 3.90362 16.0372 3.88577 16.0146C3.81661 15.9267 3.96831 16.1251 3.90139 16.0349C3.83 15.9402 3.76084 15.8456 3.69391 15.7486C3.56452 15.5638 3.44182 15.3721 3.32582 15.176C3.20981 14.9799 3.1005 14.7792 3.00011 14.5764C2.95103 14.4794 2.90418 14.3802 2.85957 14.281C2.83949 14.2359 2.81941 14.1909 2.79933 14.1435C2.78818 14.1165 2.77702 14.0894 2.76364 14.0601C2.83949 14.2314 2.77925 14.0939 2.76364 14.0556C2.59186 13.625 2.45132 13.1832 2.34423 12.7323C2.29069 12.5023 2.24607 12.2724 2.21038 12.0402C2.20146 11.9884 2.19476 11.9388 2.18807 11.8869C2.17246 11.7697 2.20592 12.0312 2.19253 11.914C2.18807 11.8824 2.18584 11.8531 2.18138 11.8215C2.16799 11.6975 2.15461 11.5735 2.14569 11.4496C2.10999 10.9671 2.11222 10.4802 2.15015 9.99775C2.15907 9.88278 2.17022 9.77006 2.18361 9.65734C2.18807 9.62578 2.19253 9.59647 2.19476 9.56491C2.17915 9.73399 2.18361 9.64832 2.1903 9.60775C2.19923 9.54237 2.21038 9.47474 2.2193 9.40936C2.25723 9.17716 2.30408 8.94722 2.35762 8.71953C2.46693 8.26866 2.61194 7.82906 2.78372 7.39847C2.8261 7.29252 2.72794 7.52697 2.77256 7.42327C2.78372 7.39622 2.7971 7.36917 2.80826 7.33986C2.82833 7.29477 2.84841 7.24968 2.86849 7.2046C2.91757 7.09639 2.96888 6.98818 3.02242 6.88222C3.12504 6.67933 3.23435 6.47869 3.35036 6.28482C3.46636 6.09094 3.59129 5.90158 3.72068 5.71447C3.78315 5.62655 3.84784 5.54088 3.91254 5.45296C3.79877 5.61077 3.92369 5.43943 3.9527 5.40336C3.98839 5.35828 4.02631 5.31094 4.06424 5.26585C4.35202 4.91868 4.66435 4.59179 4.99898 4.29196C5.07929 4.21983 5.1596 4.14994 5.24214 4.08005C5.28676 4.04173 5.33361 4.00566 5.37823 3.96734C5.40054 3.9493 5.42508 3.93127 5.44738 3.91323C5.53439 3.84335 5.33807 3.99664 5.42731 3.92901C5.60801 3.7915 5.78871 3.66074 5.97833 3.53675C6.35758 3.28877 6.75245 3.06785 7.16516 2.87848C7.2187 2.85368 7.27224 2.82888 7.32801 2.80634C7.36371 2.79056 7.46856 2.75224 7.30347 2.81536C7.32578 2.80634 7.34809 2.79732 7.37263 2.78605C7.47748 2.74322 7.58456 2.70039 7.69165 2.66206C7.9125 2.5809 8.13559 2.50876 8.36091 2.44564C8.584 2.38252 8.80932 2.32842 9.03687 2.28333C9.15064 2.26079 9.26665 2.2405 9.38265 2.22246C9.43396 2.21344 9.48304 2.20668 9.53435 2.19992C9.65036 2.18414 9.39158 2.21795 9.50758 2.20443C9.54774 2.19992 9.58789 2.19541 9.63028 2.18865C10.1055 2.13454 10.5851 2.11876 11.0625 2.13905C11.299 2.15032 11.5354 2.16836 11.7719 2.19766C11.792 2.19992 11.8121 2.20443 11.8322 2.20443C11.6515 2.18639 11.7652 2.19541 11.8054 2.19992C11.8656 2.20894 11.9259 2.21795 11.9861 2.22697C12.1066 2.24726 12.2248 2.2698 12.3453 2.2946C12.7959 2.38928 13.2398 2.51778 13.6726 2.67784C13.7753 2.71617 13.8756 2.75674 13.976 2.79958C14.0809 2.84241 13.8489 2.74322 13.9515 2.78831C13.9693 2.79732 13.9872 2.80409 14.005 2.8131C14.0675 2.84016 14.1322 2.86946 14.1947 2.89877C14.3999 2.99571 14.6007 3.09941 14.7992 3.20987C14.9955 3.32033 15.1874 3.43982 15.377 3.56381C15.4663 3.62467 15.5555 3.68554 15.6425 3.74866C15.6871 3.78022 15.7295 3.81179 15.7719 3.84335C15.8098 3.87265 15.9838 4.01242 15.8344 3.88843C16.1824 4.17474 16.5192 4.47006 16.8316 4.79694C16.9855 4.96151 17.135 5.13059 17.2777 5.30417C17.3157 5.34926 17.3513 5.3966 17.387 5.44169C17.3982 5.45747 17.4116 5.47325 17.4227 5.48903C17.4919 5.57695 17.3402 5.37857 17.4071 5.46874C17.4785 5.56342 17.5477 5.65811 17.6146 5.75504C17.8734 6.12701 18.1054 6.51927 18.3062 6.92731C18.3552 7.02425 18.4021 7.12344 18.4467 7.22263C18.4712 7.27674 18.4958 7.33084 18.5181 7.3872C18.5248 7.40298 18.5649 7.49766 18.5248 7.40298C18.4824 7.30379 18.5337 7.42778 18.5426 7.44581C18.6274 7.65998 18.7055 7.8764 18.7769 8.09732C18.9174 8.54369 19.0245 8.99907 19.0959 9.46347C19.1048 9.52433 19.1137 9.5852 19.1227 9.64607C19.0937 9.44994 19.1204 9.6348 19.1249 9.68214C19.1383 9.79486 19.1494 9.90983 19.1584 10.0248C19.1762 10.2683 19.1851 10.5117 19.1874 10.753C19.1874 11.0483 19.4439 11.3301 19.7451 11.3166C20.0462 11.303 20.3028 11.0686 20.3028 10.753C20.2983 8.75785 19.6915 6.76951 18.5449 5.14186C17.396 3.51421 15.7987 2.27431 13.9403 1.58222C12.0597 0.883371 9.94483 0.81574 8.01959 1.36806C6.16573 1.90009 4.4658 3.00923 3.23882 4.51289C1.95829 6.08193 1.18641 7.99813 1.02802 10.0271C0.874085 12.0289 1.35819 14.0759 2.38885 15.7937C3.38382 17.4507 4.87628 18.8146 6.62752 19.6149C8.50146 20.4715 10.5918 20.7127 12.6107 20.3024C14.5092 19.9147 16.2828 18.9137 17.6191 17.5003C18.962 16.0823 19.8812 14.2495 20.1779 12.3062C20.256 11.79 20.3028 11.2737 20.3028 10.7507C20.3028 10.4554 20.0462 10.1736 19.7451 10.1871C19.4417 10.2029 19.1874 10.4374 19.1874 10.753Z" fill="#D500B3"/>
<path d="M19.1874 10.753C19.1874 10.9942 19.1784 11.2376 19.1584 11.4789C19.1494 11.5983 19.1383 11.7178 19.1249 11.8351C19.1227 11.8599 19.1182 11.8869 19.116 11.9117C19.1026 12.0289 19.1361 11.7674 19.1204 11.8847C19.1115 11.95 19.1004 12.0177 19.0914 12.083C19.0156 12.5497 18.9063 13.0096 18.7613 13.4604C18.6899 13.6791 18.6096 13.8955 18.5248 14.1097C18.5114 14.1435 18.4824 14.2044 18.5471 14.0579C18.5359 14.0849 18.5248 14.112 18.5114 14.1413C18.4869 14.1954 18.4646 14.2517 18.4378 14.3058C18.3887 14.414 18.3374 14.5223 18.2839 14.6282C18.0786 15.034 17.8466 15.424 17.5834 15.796C17.5209 15.8839 17.4562 15.9696 17.3915 16.0575C17.503 15.9019 17.396 16.0507 17.3714 16.0823C17.329 16.1364 17.2867 16.1905 17.242 16.2423C17.0993 16.4159 16.9476 16.585 16.7936 16.7473C16.6375 16.9096 16.4768 17.0674 16.3095 17.2162C16.2292 17.2884 16.1489 17.3582 16.0664 17.4281C16.0284 17.4597 15.9905 17.4912 15.9526 17.5206C15.9303 17.5386 15.908 17.5566 15.8834 17.5747C15.7674 17.6671 15.957 17.5183 15.8812 17.5769C15.522 17.8497 15.145 18.0999 14.7524 18.3209C14.5538 18.4313 14.3508 18.5328 14.1456 18.6297C14.0965 18.6522 14.0474 18.6748 13.9961 18.6973C13.9738 18.7063 13.9515 18.7176 13.9269 18.7266C14.0876 18.6545 13.9872 18.7018 13.9515 18.7154C13.8422 18.7605 13.7306 18.8033 13.6191 18.8461C13.1863 19.0062 12.7401 19.1302 12.2895 19.2226C12.1802 19.2451 12.0709 19.2654 11.9593 19.2835C11.8991 19.2925 11.8388 19.3015 11.7786 19.3105C11.6871 19.324 11.8299 19.3038 11.8366 19.3038C11.7965 19.3083 11.7563 19.315 11.7139 19.3195C11.4774 19.3466 11.241 19.3646 11.0023 19.3736C10.5249 19.3917 10.0452 19.3714 9.57005 19.315C9.53881 19.3105 9.50981 19.306 9.47858 19.3038C9.65928 19.3218 9.54551 19.3128 9.50535 19.3083C9.45404 19.3015 9.40496 19.2925 9.35365 19.2857C9.23318 19.2654 9.11272 19.2451 8.99448 19.2203C8.76693 19.173 8.54161 19.1189 8.32075 19.0558C8.0999 18.9926 7.88127 18.9205 7.66711 18.8416C7.56449 18.8033 7.4641 18.7627 7.36148 18.7221C7.32578 18.7063 7.22539 18.6613 7.38602 18.7334C7.35925 18.7221 7.33248 18.7109 7.30347 18.6973C7.24993 18.6725 7.19416 18.65 7.14062 18.6229C6.73014 18.4313 6.33527 18.2104 5.95825 17.9602C5.77086 17.8362 5.59016 17.7009 5.40946 17.5656C5.56562 17.6806 5.39607 17.5544 5.36038 17.5251C5.31799 17.4912 5.27784 17.4574 5.23545 17.4214C5.14622 17.3447 5.05698 17.2681 4.96998 17.1892C4.63311 16.8826 4.31856 16.5512 4.03078 16.1995C3.99954 16.1612 3.96831 16.1228 3.93931 16.0845C3.92146 16.062 3.90362 16.0372 3.88577 16.0146C3.81661 15.9267 3.96831 16.1251 3.90139 16.0349C3.83 15.9402 3.76084 15.8456 3.69391 15.7486C3.56452 15.5638 3.44182 15.3721 3.32582 15.176C3.20981 14.9799 3.1005 14.7792 3.00011 14.5764C2.95103 14.4794 2.90418 14.3802 2.85957 14.281C2.83949 14.2359 2.81941 14.1909 2.79933 14.1435C2.78818 14.1165 2.77702 14.0894 2.76364 14.0601C2.83949 14.2314 2.77925 14.0939 2.76364 14.0556C2.59186 13.625 2.45132 13.1832 2.34423 12.7323C2.29069 12.5023 2.24607 12.2724 2.21038 12.0402C2.20146 11.9884 2.19476 11.9388 2.18807 11.8869C2.17246 11.7697 2.20592 12.0312 2.19253 11.914C2.18807 11.8824 2.18584 11.8531 2.18138 11.8215C2.16799 11.6975 2.15461 11.5735 2.14569 11.4496C2.10999 10.9671 2.11222 10.4802 2.15015 9.99775C2.15907 9.88278 2.17022 9.77006 2.18361 9.65734C2.18807 9.62578 2.19253 9.59647 2.19476 9.56491C2.17915 9.73399 2.18361 9.64832 2.1903 9.60775C2.19923 9.54237 2.21038 9.47474 2.2193 9.40936C2.25723 9.17716 2.30408 8.94722 2.35762 8.71953C2.46693 8.26866 2.61194 7.82906 2.78372 7.39847C2.8261 7.29252 2.72794 7.52697 2.77256 7.42327C2.78372 7.39622 2.7971 7.36917 2.80826 7.33986C2.82833 7.29477 2.84841 7.24968 2.86849 7.2046C2.91757 7.09639 2.96888 6.98818 3.02242 6.88222C3.12504 6.67933 3.23435 6.47869 3.35036 6.28482C3.46636 6.09094 3.59129 5.90158 3.72068 5.71447C3.78315 5.62655 3.84784 5.54088 3.91254 5.45296C3.79877 5.61077 3.92369 5.43943 3.9527 5.40336C3.98839 5.35828 4.02631 5.31094 4.06424 5.26585C4.35202 4.91868 4.66435 4.59179 4.99898 4.29196C5.07929 4.21983 5.1596 4.14994 5.24214 4.08005C5.28676 4.04173 5.33361 4.00566 5.37823 3.96734C5.40054 3.9493 5.42508 3.93127 5.44738 3.91323C5.53439 3.84335 5.33807 3.99664 5.42731 3.92901C5.60801 3.7915 5.78871 3.66074 5.97833 3.53675C6.35758 3.28877 6.75245 3.06785 7.16516 2.87848C7.2187 2.85368 7.27224 2.82888 7.32801 2.80634C7.36371 2.79056 7.46856 2.75224 7.30347 2.81536C7.32578 2.80634 7.34809 2.79732 7.37263 2.78605C7.47748 2.74322 7.58456 2.70039 7.69165 2.66206C7.9125 2.5809 8.13559 2.50877 8.36091 2.44564C8.584 2.38252 8.80932 2.32842 9.03687 2.28333C9.15064 2.26079 9.26665 2.2405 9.38265 2.22246C9.43396 2.21344 9.48304 2.20668 9.53435 2.19992C9.65036 2.18414 9.39158 2.21795 9.50758 2.20443C9.54774 2.19992 9.58789 2.19541 9.63028 2.18865C10.1055 2.13454 10.5851 2.11876 11.0625 2.13905C11.299 2.15032 11.5354 2.16836 11.7719 2.19766C11.792 2.19992 11.8121 2.20443 11.8322 2.20443C11.6515 2.18639 11.7652 2.19541 11.8054 2.19992C11.8656 2.20894 11.9259 2.21795 11.9861 2.22697C12.1066 2.24726 12.2248 2.2698 12.3453 2.2946C12.7959 2.38928 13.2398 2.51778 13.6726 2.67784C13.7753 2.71617 13.8756 2.75674 13.976 2.79958C14.0809 2.84241 13.8489 2.74322 13.9515 2.78831C13.9693 2.79732 13.9872 2.80409 14.005 2.8131C14.0675 2.84016 14.1322 2.86946 14.1947 2.89877C14.3999 2.99571 14.6007 3.09941 14.7992 3.20987C14.9955 3.32034 15.1874 3.43982 15.377 3.56381C15.4663 3.62467 15.5555 3.68554 15.6425 3.74866C15.6871 3.78022 15.7295 3.81179 15.7719 3.84335C15.8098 3.87265 15.9838 4.01242 15.8344 3.88843C16.1824 4.17474 16.5192 4.47006 16.8316 4.79694C16.9855 4.96151 17.135 5.13059 17.2777 5.30417C17.3157 5.34926 17.3513 5.3966 17.387 5.44169C17.3982 5.45747 17.4116 5.47325 17.4227 5.48903C17.4919 5.57695 17.3402 5.37857 17.4071 5.46874C17.4785 5.56342 17.5477 5.65811 17.6146 5.75504C17.8734 6.12701 18.1054 6.51927 18.3062 6.92731C18.3552 7.02425 18.4021 7.12344 18.4467 7.22263C18.4712 7.27674 18.4958 7.33084 18.5181 7.3872C18.5248 7.40298 18.5649 7.49766 18.5248 7.40298C18.4824 7.30379 18.5337 7.42778 18.5426 7.44581C18.6274 7.65998 18.7055 7.8764 18.7769 8.09732C18.9174 8.54369 19.0245 8.99907 19.0959 9.46347C19.1048 9.52433 19.1137 9.5852 19.1227 9.64607C19.0937 9.44994 19.1204 9.6348 19.1249 9.68214C19.1383 9.79486 19.1494 9.90983 19.1584 10.0248C19.1762 10.2683 19.1851 10.5117 19.1874 10.753ZM19.1874 10.753C19.1874 11.0483 19.4439 11.3301 19.7451 11.3166C20.0462 11.303 20.3028 11.0686 20.3028 10.753C20.2983 8.75785 19.6915 6.76951 18.5449 5.14186C17.396 3.51421 15.7987 2.27431 13.9403 1.58222C12.0597 0.883371 9.94483 0.81574 8.01959 1.36806C6.16573 1.90009 4.4658 3.00923 3.23882 4.51289C1.95829 6.08193 1.18641 7.99813 1.02802 10.0271C0.874085 12.0289 1.35819 14.0759 2.38885 15.7937C3.38382 17.4507 4.87628 18.8146 6.62752 19.6149C8.50146 20.4715 10.5918 20.7127 12.6107 20.3024C14.5092 19.9147 16.2828 18.9137 17.6191 17.5003C18.962 16.0823 19.8812 14.2495 20.1779 12.3062C20.256 11.79 20.3028 11.2737 20.3028 10.7507C20.3028 10.4554 20.0462 10.1736 19.7451 10.1871C19.4417 10.2029 19.1874 10.4374 19.1874 10.753Z" stroke="#FF0000"/>
</svg>
